<svg xmlns="http://www.w3.org/2000/svg" xmlns:xlink="http://www.w3.org/1999/xlink" zoomAndPan="magnify" preserveAspectRatio="xMidYMid meet" version="1.0" viewBox="110.44 82.13 180.85 176.21"><defs><g/><clipPath id="912c43e1b3"><path d="M 110 82 L 178 82 L 178 152 L 110 152 Z M 110 82 " clip-rule="nonzero"/></clipPath><clipPath id="978a8edf5b"><path d="M 101.890625 100.804688 L 170.082031 67.816406 L 195.554688 120.480469 L 127.367188 153.464844 Z M 101.890625 100.804688 " clip-rule="nonzero"/></clipPath><clipPath id="3962a0015f"><path d="M 170.324219 67.699219 L 102.132812 100.6875 L 127.609375 153.347656 L 195.796875 120.363281 Z M 170.324219 67.699219 " clip-rule="nonzero"/></clipPath></defs><g fill="#0056a0" fill-opacity="1"><g transform="translate(124.630163, 255.469853)"><g><path d="M 49.09375 -135.59375 C 49.09375 -130.09375 47.398438 -125.710938 44.015625 -122.453125 C 40.628906 -119.191406 36.125 -117.5625 30.5 -117.5625 C 25 -117.5625 20.617188 -119.191406 17.359375 -122.453125 C 14.097656 -125.710938 12.46875 -130.09375 12.46875 -135.59375 C 12.46875 -140.957031 14.160156 -145.300781 17.546875 -148.625 C 20.929688 -151.945312 25.375 -153.609375 30.875 -153.609375 C 36.375 -153.609375 40.785156 -151.945312 44.109375 -148.625 C 47.429688 -145.300781 49.09375 -140.957031 49.09375 -135.59375 Z M 45.453125 -20.71875 C 45.453125 -17.007812 46.378906 -14.351562 48.234375 -12.75 C 50.085938 -11.15625 52.929688 -10.359375 56.765625 -10.359375 C 56.765625 -6.390625 55.296875 -2.9375 52.359375 0 L 9.015625 0 C 6.078125 -2.9375 4.609375 -6.390625 4.609375 -10.359375 C 8.441406 -10.359375 11.21875 -11.15625 12.9375 -12.75 C 14.664062 -14.351562 15.53125 -17.070312 15.53125 -20.90625 L 15.53125 -76.515625 C 15.53125 -80.097656 14.664062 -82.65625 12.9375 -84.1875 C 11.21875 -85.726562 7.863281 -86.5 2.875 -86.5 L 2.875 -94.9375 C 5.945312 -96.851562 11.15625 -98.863281 18.5 -100.96875 C 25.851562 -103.082031 32.085938 -104.140625 37.203125 -104.140625 C 40.140625 -104.140625 42.25 -103.46875 43.53125 -102.125 C 44.8125 -100.78125 45.453125 -98.507812 45.453125 -95.3125 Z M 45.453125 -20.71875 "/></g></g></g><g fill="#0056a0" fill-opacity="1"><g transform="translate(184.464712, 255.469853)"><g><path d="M 26.46875 -47.171875 C 28.507812 -36.429688 32.535156 -27.960938 38.546875 -21.765625 C 44.554688 -15.566406 51.648438 -12.46875 59.828125 -12.46875 C 65.203125 -12.46875 69.164062 -14 71.71875 -17.0625 C 74.28125 -20.132812 75.5625 -23.523438 75.5625 -27.234375 C 75.5625 -32.734375 73.160156 -37.367188 68.359375 -41.140625 C 63.566406 -44.910156 56.695312 -48.96875 47.75 -53.3125 C 35.726562 -59.195312 26.648438 -65.71875 20.515625 -72.875 C 14.378906 -80.03125 11.3125 -88.722656 11.3125 -98.953125 C 11.3125 -106.503906 13.195312 -113.054688 16.96875 -118.609375 C 20.738281 -124.171875 25.882812 -128.421875 32.40625 -131.359375 C 38.925781 -134.304688 46.21875 -135.78125 54.28125 -135.78125 C 58.5 -135.78125 63.066406 -135.363281 67.984375 -134.53125 C 72.910156 -133.695312 76.84375 -132.453125 79.78125 -130.796875 L 96.078125 -135.78125 C 98.378906 -131.8125 99.847656 -126.34375 100.484375 -119.375 C 101.128906 -112.414062 101.453125 -104.394531 101.453125 -95.3125 L 101.453125 -92.4375 L 85.53125 -92.4375 C 80.925781 -111.101562 71.914062 -120.4375 58.5 -120.4375 C 53.382812 -120.4375 49.546875 -119 46.984375 -116.125 C 44.429688 -113.25 43.15625 -109.445312 43.15625 -104.71875 C 43.15625 -100.875 44.175781 -97.546875 46.21875 -94.734375 C 48.257812 -91.921875 50.847656 -89.523438 53.984375 -87.546875 C 57.117188 -85.566406 61.304688 -83.296875 66.546875 -80.734375 C 74.597656 -76.773438 81.34375 -73.066406 86.78125 -69.609375 C 92.21875 -66.160156 96.914062 -61.59375 100.875 -55.90625 C 104.84375 -50.21875 106.828125 -43.472656 106.828125 -35.671875 C 106.828125 -28.515625 105.035156 -22.023438 101.453125 -16.203125 C 97.867188 -10.390625 92.65625 -5.753906 85.8125 -2.296875 C 78.976562 1.148438 71.023438 2.875 61.953125 2.875 C 51.585938 2.875 41.289062 0.703125 31.0625 -3.640625 L 16.296875 2.875 C 13.867188 -1.976562 11.757812 -9.550781 9.96875 -19.84375 C 8.175781 -30.132812 7.28125 -39.242188 7.28125 -47.171875 Z M 26.46875 -47.171875 "/></g></g></g><g clip-path="url(#912c43e1b3)"><g clip-path="url(#978a8edf5b)"><g clip-path="url(#3962a0015f)"><path fill="#ff8c00" d="M 176.914062 84.019531 C 176.085938 84.964844 175.257812 85.898438 174.453125 86.855469 C 171.488281 90.378906 168.527344 93.914062 165.578125 97.460938 C 165.351562 97.734375 165.125 98.019531 164.890625 98.316406 C 164.972656 98.554688 165.066406 98.789062 165.171875 99.019531 C 166.496094 101.429688 167.792969 103.851562 169.164062 106.234375 C 169.683594 107.144531 169.75 107.976562 169.1875 108.84375 C 168.792969 109.5 168.363281 110.132812 167.890625 110.734375 C 164.492188 114.84375 161.066406 118.929688 157.660156 123.035156 C 157.164062 123.664062 156.554688 124.148438 155.824219 124.480469 C 155.09375 124.816406 154.328125 124.960938 153.527344 124.925781 C 148.636719 124.835938 143.75 124.777344 138.863281 124.75 C 138.453125 124.765625 138.054688 124.71875 137.660156 124.609375 C 137.265625 124.5 136.898438 124.332031 136.5625 124.105469 C 136.222656 123.878906 135.925781 123.601562 135.671875 123.28125 C 135.417969 122.960938 135.222656 122.609375 135.078125 122.226562 C 134.320312 120.492188 133.617188 118.726562 132.890625 116.972656 C 132.652344 116.386719 132.417969 115.800781 132.203125 115.277344 L 114.773438 115.074219 L 118.871094 123.546875 C 120.382812 123.691406 121.035156 124.542969 121.269531 125.839844 C 121.347656 126.195312 121.484375 126.527344 121.6875 126.828125 C 123.9375 130.425781 126.191406 134.015625 128.453125 137.605469 C 130.261719 140.476562 132.015625 143.386719 134.472656 145.789062 C 134.746094 146.054688 135.085938 146.332031 134.878906 146.898438 C 134.695312 146.878906 134.515625 146.839844 134.339844 146.78125 C 134.207031 146.6875 134.085938 146.585938 133.972656 146.46875 C 133.847656 146.375 133.710938 146.3125 133.582031 146.234375 C 133.625 146.453125 133.71875 146.648438 133.863281 146.816406 C 134.082031 147.128906 134.574219 147.484375 134.101562 147.824219 C 133.628906 148.160156 133.417969 147.578125 133.191406 147.285156 C 131.8125 145.507812 130.453125 143.710938 129.089844 141.921875 C 129.785156 143.289062 130.570312 144.605469 131.316406 145.941406 C 131.828125 146.859375 132.296875 147.800781 132.777344 148.734375 C 132.914062 149.019531 133.0625 149.328125 132.503906 149.65625 C 131.15625 147.738281 130.378906 145.46875 128.910156 143.695312 C 129.839844 145.625 130.789062 147.582031 131.738281 149.546875 C 131.921875 149.929688 132.222656 150.3125 131.84375 150.757812 C 131.242188 150.742188 131.121094 150.265625 130.941406 149.886719 C 130.117188 148.183594 129.289062 146.476562 128.464844 144.773438 L 128.222656 144.890625 L 130.496094 149.585938 C 130.707031 149.976562 130.890625 150.378906 131.035156 150.800781 C 131.089844 150.976562 130.921875 151.222656 130.851562 151.4375 L 130.546875 151.449219 C 128.765625 147.949219 127.1875 144.347656 125.535156 140.769531 C 125.917969 142.296875 126.386719 143.796875 126.816406 145.304688 C 127.316406 147.054688 127.78125 148.8125 128.238281 150.574219 C 128.335938 150.945312 128.5625 151.441406 127.789062 151.71875 C 127.660156 151.359375 127.53125 151.054688 127.4375 150.734375 C 126.414062 147.242188 125.425781 143.746094 124.382812 140.261719 C 123.777344 138.257812 123.078125 136.261719 122.433594 134.289062 C 122.410156 134.480469 122.316406 134.691406 122.367188 134.859375 C 122.65625 135.910156 122.960938 136.960938 123.28125 137.996094 C 124.492188 142.148438 125.695312 146.300781 126.894531 150.453125 C 126.980469 150.71875 127.027344 150.996094 127.039062 151.277344 C 127.007812 151.433594 126.921875 151.542969 126.773438 151.601562 C 126.613281 151.609375 126.480469 151.550781 126.375 151.425781 C 126.277344 151.25 126.210938 151.0625 126.175781 150.863281 C 124.960938 146.679688 123.746094 142.492188 122.523438 138.289062 C 121.46875 134.683594 120.441406 131.066406 119.320312 127.484375 C 118.933594 126.261719 117.894531 125.257812 118.113281 123.832031 C 116.972656 120.96875 115.601562 118.226562 113.996094 115.597656 C 113.886719 115.375 113.730469 115.203125 113.515625 115.082031 C 113.304688 114.960938 113.074219 114.910156 112.832031 114.929688 C 112.34375 114.96875 111.859375 114.957031 111.378906 114.902344 C 110.488281 114.796875 110.203125 114.285156 110.640625 113.46875 C 110.816406 113.152344 111.023438 112.855469 111.265625 112.578125 C 111.910156 111.808594 112.59375 111.015625 113.304688 110.25 C 120.644531 102.070312 128.210938 94.089844 135.199219 85.605469 C 135.683594 84.996094 136.261719 84.5 136.9375 84.117188 C 137.609375 83.730469 138.332031 83.484375 139.101562 83.378906 C 139.78125 83.28125 140.445312 83.175781 141.144531 83.128906 C 144.414062 82.933594 147.667969 82.699219 150.941406 82.597656 C 158.5 82.410156 166.054688 82.273438 173.605469 82.140625 C 174.539062 82.113281 175.460938 82.179688 176.378906 82.335938 C 177.5 82.535156 177.660156 83.171875 176.914062 84.019531 Z M 176.914062 84.019531 " fill-opacity="1" fill-rule="nonzero"/></g></g></g></svg>