<svg xmlns="http://www.w3.org/2000/svg" xmlns:xlink="http://www.w3.org/1999/xlink" width="500" zoomAndPan="magnify" viewBox="0 0 375 374.999991" height="500" preserveAspectRatio="xMidYMid meet" version="1.0"><defs><g/><clipPath id="cfdf1f7b00"><path d="M 14 148 L 41 148 L 41 173 L 14 173 Z M 14 148 " clip-rule="nonzero"/></clipPath><clipPath id="2e2b60c90a"><path d="M 11.996094 152.347656 L 38.585938 144.402344 L 44.597656 164.523438 L 18.007812 172.46875 Z M 11.996094 152.347656 " clip-rule="nonzero"/></clipPath><clipPath id="2ae05b974c"><path d="M 38.472656 144.4375 L 11.882812 152.382812 L 17.894531 172.503906 L 44.484375 164.558594 Z M 38.472656 144.4375 " clip-rule="nonzero"/></clipPath></defs><g fill="#0056a0" fill-opacity="1"><g transform="translate(19.065378, 211.499986)"><g><path d="M 17.625 -48.671875 C 17.625 -46.703125 17.015625 -45.128906 15.796875 -43.953125 C 14.578125 -42.785156 12.960938 -42.203125 10.953125 -42.203125 C 8.972656 -42.203125 7.394531 -42.785156 6.21875 -43.953125 C 5.050781 -45.128906 4.46875 -46.703125 4.46875 -48.671875 C 4.46875 -50.597656 5.078125 -52.15625 6.296875 -53.34375 C 7.515625 -54.539062 9.109375 -55.140625 11.078125 -55.140625 C 13.054688 -55.140625 14.640625 -54.539062 15.828125 -53.34375 C 17.023438 -52.15625 17.625 -50.597656 17.625 -48.671875 Z M 16.3125 -7.4375 C 16.3125 -6.101562 16.644531 -5.148438 17.3125 -4.578125 C 17.976562 -4.003906 19 -3.71875 20.375 -3.71875 C 20.375 -2.289062 19.847656 -1.050781 18.796875 0 L 3.234375 0 C 2.179688 -1.050781 1.65625 -2.289062 1.65625 -3.71875 C 3.03125 -3.71875 4.023438 -4.003906 4.640625 -4.578125 C 5.265625 -5.148438 5.578125 -6.125 5.578125 -7.5 L 5.578125 -27.46875 C 5.578125 -28.75 5.265625 -29.664062 4.640625 -30.21875 C 4.023438 -30.769531 2.820312 -31.046875 1.03125 -31.046875 L 1.03125 -34.078125 C 2.132812 -34.765625 4.003906 -35.484375 6.640625 -36.234375 C 9.285156 -36.992188 11.523438 -37.375 13.359375 -37.375 C 14.410156 -37.375 15.164062 -37.132812 15.625 -36.65625 C 16.082031 -36.175781 16.3125 -35.363281 16.3125 -34.21875 Z M 16.3125 -7.4375 "/></g></g></g><g fill="#0056a0" fill-opacity="1"><g transform="translate(40.545845, 211.499986)"><g><path d="M 40.75 -1.859375 C 40.0625 -1.171875 38.832031 -0.617188 37.0625 -0.203125 C 35.300781 0.203125 33.617188 0.40625 32.015625 0.40625 C 30.035156 0.40625 28.578125 0.0390625 27.640625 -0.6875 C 26.703125 -1.425781 26.234375 -2.597656 26.234375 -4.203125 L 26.234375 -25.671875 C 26.234375 -27.460938 25.84375 -28.75 25.0625 -29.53125 C 24.28125 -30.3125 23.25 -30.703125 21.96875 -30.703125 C 20.082031 -30.703125 18.5 -29.945312 17.21875 -28.4375 L 17.21875 -7.4375 C 17.21875 -6.101562 17.503906 -5.140625 18.078125 -4.546875 C 18.648438 -3.953125 19.625 -3.65625 21 -3.65625 C 21 -2.269531 20.46875 -1.050781 19.40625 0 L 3.78125 0 C 2.6875 -1.101562 2.140625 -2.320312 2.140625 -3.65625 C 3.515625 -3.65625 4.5 -3.953125 5.09375 -4.546875 C 5.6875 -5.140625 5.984375 -6.101562 5.984375 -7.4375 L 5.984375 -27.53125 C 5.984375 -28.769531 5.640625 -29.65625 4.953125 -30.1875 C 4.265625 -30.71875 3.070312 -30.984375 1.375 -30.984375 L 1.375 -34.078125 C 2.84375 -34.898438 4.921875 -35.65625 7.609375 -36.34375 C 10.296875 -37.03125 12.328125 -37.375 13.703125 -37.375 C 14.753906 -37.375 15.566406 -37.039062 16.140625 -36.375 C 16.710938 -35.71875 17.046875 -34.46875 17.140625 -32.625 C 18.335938 -34.09375 19.828125 -35.25 21.609375 -36.09375 C 23.398438 -36.945312 25.421875 -37.375 27.671875 -37.375 C 30.972656 -37.375 33.414062 -36.535156 35 -34.859375 C 36.582031 -33.191406 37.375 -30.453125 37.375 -26.640625 L 37.375 -7.84375 C 37.375 -5.59375 38.476562 -4.265625 40.6875 -3.859375 Z M 40.75 -1.859375 "/></g></g></g><g fill="#0056a0" fill-opacity="1"><g transform="translate(82.611761, 211.499986)"><g><path d="M 15.90625 -30.359375 L 15.90625 -10.953125 C 15.90625 -9.566406 16.179688 -8.609375 16.734375 -8.078125 C 17.285156 -7.554688 18.0625 -7.296875 19.0625 -7.296875 C 19.9375 -7.296875 20.851562 -7.523438 21.8125 -7.984375 C 22.78125 -8.441406 23.539062 -9.015625 24.09375 -9.703125 C 24.550781 -9.335938 24.882812 -8.785156 25.09375 -8.046875 C 25.300781 -7.316406 25.40625 -6.65625 25.40625 -6.0625 C 25.40625 -5 25.035156 -3.960938 24.296875 -2.953125 C 23.566406 -1.953125 22.46875 -1.128906 21 -0.484375 C 19.53125 0.160156 17.765625 0.484375 15.703125 0.484375 C 12.484375 0.484375 9.898438 -0.429688 7.953125 -2.265625 C 6.003906 -4.109375 5.03125 -7.160156 5.03125 -11.421875 L 5.03125 -30.359375 L 0.6875 -30.359375 L 0.6875 -34.5625 C 1.882812 -34.738281 3.046875 -35.503906 4.171875 -36.859375 C 5.296875 -38.210938 6.257812 -39.910156 7.0625 -41.953125 C 7.863281 -44.003906 8.378906 -46.035156 8.609375 -48.046875 C 9.429688 -48.191406 10.1875 -48.265625 10.875 -48.265625 C 12.53125 -48.265625 13.757812 -47.789062 14.5625 -46.84375 C 15.363281 -45.90625 15.765625 -44.863281 15.765625 -43.71875 L 15.765625 -36.484375 L 23.75 -36.484375 C 23.75 -35.109375 23.679688 -33.925781 23.546875 -32.9375 C 23.410156 -31.957031 23.113281 -31.097656 22.65625 -30.359375 Z M 15.90625 -30.359375 "/></g></g></g><g fill="#0056a0" fill-opacity="1"><g transform="translate(108.567325, 211.499986)"><g><path d="M 22.03125 -7.015625 C 24.925781 -7.015625 27.609375 -7.9375 30.078125 -9.78125 C 30.453125 -9.40625 30.773438 -8.847656 31.046875 -8.109375 C 31.328125 -7.378906 31.46875 -6.742188 31.46875 -6.203125 C 31.46875 -5.367188 30.914062 -4.410156 29.8125 -3.328125 C 28.707031 -2.253906 27.179688 -1.328125 25.234375 -0.546875 C 23.285156 0.234375 21.09375 0.625 18.65625 0.625 C 15.257812 0.625 12.285156 -0.109375 9.734375 -1.578125 C 7.191406 -3.046875 5.234375 -5.179688 3.859375 -7.984375 C 2.484375 -10.785156 1.796875 -14.09375 1.796875 -17.90625 C 1.796875 -21.800781 2.539062 -25.21875 4.03125 -28.15625 C 5.519531 -31.09375 7.570312 -33.351562 10.1875 -34.9375 C 12.800781 -36.519531 15.757812 -37.3125 19.0625 -37.3125 C 23.238281 -37.3125 26.566406 -36.09375 29.046875 -33.65625 C 31.523438 -31.226562 32.765625 -27.859375 32.765625 -23.546875 C 32.765625 -21.523438 32.441406 -19.925781 31.796875 -18.75 C 31.160156 -17.582031 30.015625 -17 28.359375 -17 L 13.5 -17 C 13.769531 -10.34375 16.613281 -7.015625 22.03125 -7.015625 Z M 18.65625 -32.5625 C 17.226562 -32.5625 16.03125 -31.769531 15.0625 -30.1875 C 14.101562 -28.601562 13.582031 -25.953125 13.5 -22.234375 L 20.453125 -22.234375 C 21.179688 -22.234375 21.660156 -22.484375 21.890625 -22.984375 C 22.117188 -23.492188 22.234375 -24.273438 22.234375 -25.328125 C 22.234375 -28.035156 21.910156 -29.914062 21.265625 -30.96875 C 20.628906 -32.03125 19.757812 -32.5625 18.65625 -32.5625 Z M 18.65625 -32.5625 "/></g></g></g><g fill="#0056a0" fill-opacity="1"><g transform="translate(143.128846, 211.499986)"><g><path d="M 25.328125 -37.375 C 27.398438 -37.375 28.914062 -36.847656 29.875 -35.796875 C 30.84375 -34.742188 31.328125 -33.300781 31.328125 -31.46875 C 31.328125 -29.488281 30.804688 -27.878906 29.765625 -26.640625 C 28.734375 -25.398438 27.347656 -24.78125 25.609375 -24.78125 C 24.097656 -24.78125 22.867188 -25.21875 21.921875 -26.09375 C 20.984375 -26.96875 20.515625 -28 20.515625 -29.1875 C 20.515625 -29.925781 20.582031 -30.5 20.71875 -30.90625 C 19.070312 -30.5 17.671875 -29.789062 16.515625 -28.78125 L 16.515625 -8.125 C 16.515625 -6.976562 16.675781 -6.101562 17 -5.5 C 17.320312 -4.90625 17.953125 -4.457031 18.890625 -4.15625 C 19.835938 -3.863281 21.25 -3.71875 23.125 -3.71875 C 23.125 -2.894531 23.03125 -2.191406 22.84375 -1.609375 C 22.664062 -1.035156 22.328125 -0.5 21.828125 0 L 3.4375 0 C 2.382812 -1.050781 1.859375 -2.289062 1.859375 -3.71875 C 3.191406 -3.71875 4.144531 -4.003906 4.71875 -4.578125 C 5.289062 -5.148438 5.578125 -6.125 5.578125 -7.5 L 5.578125 -27.40625 C 5.578125 -28.644531 5.242188 -29.515625 4.578125 -30.015625 C 3.910156 -30.515625 2.726562 -30.765625 1.03125 -30.765625 L 1.03125 -33.875 C 2.539062 -34.738281 4.546875 -35.503906 7.046875 -36.171875 C 9.554688 -36.835938 11.5 -37.171875 12.875 -37.171875 C 13.976562 -37.171875 14.757812 -36.78125 15.21875 -36 C 15.675781 -35.21875 15.90625 -33.660156 15.90625 -31.328125 C 16.726562 -32.890625 18.035156 -34.285156 19.828125 -35.515625 C 21.617188 -36.753906 23.453125 -37.375 25.328125 -37.375 Z M 25.328125 -37.375 "/></g></g></g><g fill="#0056a0" fill-opacity="1"><g transform="translate(174.11029, 211.499986)"><g><path d="M 40.75 -1.859375 C 40.0625 -1.171875 38.832031 -0.617188 37.0625 -0.203125 C 35.300781 0.203125 33.617188 0.40625 32.015625 0.40625 C 30.035156 0.40625 28.578125 0.0390625 27.640625 -0.6875 C 26.703125 -1.425781 26.234375 -2.597656 26.234375 -4.203125 L 26.234375 -25.671875 C 26.234375 -27.460938 25.84375 -28.75 25.0625 -29.53125 C 24.28125 -30.3125 23.25 -30.703125 21.96875 -30.703125 C 20.082031 -30.703125 18.5 -29.945312 17.21875 -28.4375 L 17.21875 -7.4375 C 17.21875 -6.101562 17.503906 -5.140625 18.078125 -4.546875 C 18.648438 -3.953125 19.625 -3.65625 21 -3.65625 C 21 -2.269531 20.46875 -1.050781 19.40625 0 L 3.78125 0 C 2.6875 -1.101562 2.140625 -2.320312 2.140625 -3.65625 C 3.515625 -3.65625 4.5 -3.953125 5.09375 -4.546875 C 5.6875 -5.140625 5.984375 -6.101562 5.984375 -7.4375 L 5.984375 -27.53125 C 5.984375 -28.769531 5.640625 -29.65625 4.953125 -30.1875 C 4.265625 -30.71875 3.070312 -30.984375 1.375 -30.984375 L 1.375 -34.078125 C 2.84375 -34.898438 4.921875 -35.65625 7.609375 -36.34375 C 10.296875 -37.03125 12.328125 -37.375 13.703125 -37.375 C 14.753906 -37.375 15.566406 -37.039062 16.140625 -36.375 C 16.710938 -35.71875 17.046875 -34.46875 17.140625 -32.625 C 18.335938 -34.09375 19.828125 -35.25 21.609375 -36.09375 C 23.398438 -36.945312 25.421875 -37.375 27.671875 -37.375 C 30.972656 -37.375 33.414062 -36.535156 35 -34.859375 C 36.582031 -33.191406 37.375 -30.453125 37.375 -26.640625 L 37.375 -7.84375 C 37.375 -5.59375 38.476562 -4.265625 40.6875 -3.859375 Z M 40.75 -1.859375 "/></g></g></g><g fill="#0056a0" fill-opacity="1"><g transform="translate(216.176205, 211.499986)"><g><path d="M 9.5 -16.9375 C 10.238281 -13.082031 11.6875 -10.039062 13.84375 -7.8125 C 16 -5.582031 18.546875 -4.46875 21.484375 -4.46875 C 23.410156 -4.46875 24.832031 -5.019531 25.75 -6.125 C 26.664062 -7.226562 27.125 -8.445312 27.125 -9.78125 C 27.125 -11.75 26.265625 -13.410156 24.546875 -14.765625 C 22.828125 -16.117188 20.359375 -17.578125 17.140625 -19.140625 C 12.828125 -21.253906 9.566406 -23.59375 7.359375 -26.15625 C 5.160156 -28.726562 4.0625 -31.847656 4.0625 -35.515625 C 4.0625 -38.222656 4.738281 -40.578125 6.09375 -42.578125 C 7.445312 -44.578125 9.289062 -46.101562 11.625 -47.15625 C 13.96875 -48.207031 16.585938 -48.734375 19.484375 -48.734375 C 20.992188 -48.734375 22.632812 -48.582031 24.40625 -48.28125 C 26.175781 -47.988281 27.585938 -47.546875 28.640625 -46.953125 L 34.484375 -48.734375 C 35.316406 -47.316406 35.847656 -45.359375 36.078125 -42.859375 C 36.304688 -40.359375 36.421875 -37.476562 36.421875 -34.21875 L 36.421875 -33.1875 L 30.703125 -33.1875 C 29.046875 -39.882812 25.8125 -43.234375 21 -43.234375 C 19.164062 -43.234375 17.785156 -42.71875 16.859375 -41.6875 C 15.941406 -40.65625 15.484375 -39.289062 15.484375 -37.59375 C 15.484375 -36.207031 15.847656 -35.007812 16.578125 -34 C 17.316406 -33 18.25 -32.140625 19.375 -31.421875 C 20.5 -30.710938 22.003906 -29.898438 23.890625 -28.984375 C 26.773438 -27.554688 29.191406 -26.222656 31.140625 -24.984375 C 33.097656 -23.742188 34.785156 -22.101562 36.203125 -20.0625 C 37.628906 -18.019531 38.34375 -15.601562 38.34375 -12.8125 C 38.34375 -10.238281 37.695312 -7.90625 36.40625 -5.8125 C 35.125 -3.726562 33.253906 -2.066406 30.796875 -0.828125 C 28.347656 0.410156 25.492188 1.03125 22.234375 1.03125 C 18.515625 1.03125 14.820312 0.25 11.15625 -1.3125 L 5.859375 1.03125 C 4.984375 -0.707031 4.222656 -3.425781 3.578125 -7.125 C 2.929688 -10.820312 2.609375 -14.09375 2.609375 -16.9375 Z M 9.5 -16.9375 "/></g></g></g><g fill="#0056a0" fill-opacity="1"><g transform="translate(257.002863, 211.499986)"><g><path d="M 15.90625 -30.359375 L 15.90625 -10.953125 C 15.90625 -9.566406 16.179688 -8.609375 16.734375 -8.078125 C 17.285156 -7.554688 18.0625 -7.296875 19.0625 -7.296875 C 19.9375 -7.296875 20.851562 -7.523438 21.8125 -7.984375 C 22.78125 -8.441406 23.539062 -9.015625 24.09375 -9.703125 C 24.550781 -9.335938 24.882812 -8.785156 25.09375 -8.046875 C 25.300781 -7.316406 25.40625 -6.65625 25.40625 -6.0625 C 25.40625 -5 25.035156 -3.960938 24.296875 -2.953125 C 23.566406 -1.953125 22.46875 -1.128906 21 -0.484375 C 19.53125 0.160156 17.765625 0.484375 15.703125 0.484375 C 12.484375 0.484375 9.898438 -0.429688 7.953125 -2.265625 C 6.003906 -4.109375 5.03125 -7.160156 5.03125 -11.421875 L 5.03125 -30.359375 L 0.6875 -30.359375 L 0.6875 -34.5625 C 1.882812 -34.738281 3.046875 -35.503906 4.171875 -36.859375 C 5.296875 -38.210938 6.257812 -39.910156 7.0625 -41.953125 C 7.863281 -44.003906 8.378906 -46.035156 8.609375 -48.046875 C 9.429688 -48.191406 10.1875 -48.265625 10.875 -48.265625 C 12.53125 -48.265625 13.757812 -47.789062 14.5625 -46.84375 C 15.363281 -45.90625 15.765625 -44.863281 15.765625 -43.71875 L 15.765625 -36.484375 L 23.75 -36.484375 C 23.75 -35.109375 23.679688 -33.925781 23.546875 -32.9375 C 23.410156 -31.957031 23.113281 -31.097656 22.65625 -30.359375 Z M 15.90625 -30.359375 "/></g></g></g><g fill="#0056a0" fill-opacity="1"><g transform="translate(282.958428, 211.499986)"><g><path d="M 35.25 -8.0625 C 35.25 -6.957031 35.535156 -6.035156 36.109375 -5.296875 C 36.679688 -4.566406 37.492188 -4.15625 38.546875 -4.0625 L 38.546875 -2.140625 C 37.816406 -1.304688 36.679688 -0.660156 35.140625 -0.203125 C 33.609375 0.253906 32.0625 0.484375 30.5 0.484375 C 28.9375 0.484375 27.601562 0.0703125 26.5 -0.75 C 25.40625 -1.582031 24.671875 -2.734375 24.296875 -4.203125 C 22.097656 -1.078125 18.957031 0.484375 14.875 0.484375 C 11.65625 0.484375 9.148438 -0.5 7.359375 -2.46875 C 5.578125 -4.445312 4.6875 -7.113281 4.6875 -10.46875 L 4.6875 -29.390625 C 4.6875 -30.171875 4.394531 -30.722656 3.8125 -31.046875 C 3.238281 -31.367188 2.40625 -31.53125 1.3125 -31.53125 L 1.3125 -34.5625 C 2 -35.113281 3.316406 -35.660156 5.265625 -36.203125 C 7.210938 -36.753906 9.289062 -37.03125 11.5 -37.03125 C 12.78125 -37.03125 13.71875 -36.953125 14.3125 -36.796875 C 14.914062 -36.640625 15.332031 -36.304688 15.5625 -35.796875 C 15.789062 -35.296875 15.90625 -34.492188 15.90625 -33.390625 L 15.90625 -10.25 C 15.90625 -8.832031 16.144531 -7.765625 16.625 -7.046875 C 17.101562 -6.335938 17.894531 -5.984375 19 -5.984375 C 19.914062 -5.984375 20.820312 -6.269531 21.71875 -6.84375 C 22.613281 -7.414062 23.382812 -8.117188 24.03125 -8.953125 L 24.03125 -29.390625 C 24.03125 -30.816406 22.742188 -31.53125 20.171875 -31.53125 L 20.171875 -34.5625 C 20.898438 -35.15625 22.238281 -35.710938 24.1875 -36.234375 C 26.144531 -36.765625 28.296875 -37.03125 30.640625 -37.03125 C 32.515625 -37.03125 33.75 -36.8125 34.34375 -36.375 C 34.945312 -35.945312 35.25 -34.953125 35.25 -33.390625 Z M 35.25 -8.0625 "/></g></g></g><g fill="#0056a0" fill-opacity="1"><g transform="translate(322.339285, 211.499986)"><g><path d="M 38.28125 -1.71875 C 37.632812 -0.894531 36.664062 -0.253906 35.375 0.203125 C 34.09375 0.660156 32.71875 0.890625 31.25 0.890625 C 29.925781 0.890625 28.617188 0.601562 27.328125 0.03125 C 26.046875 -0.539062 25.148438 -1.332031 24.640625 -2.34375 C 23.722656 -1.144531 22.585938 -0.304688 21.234375 0.171875 C 19.878906 0.648438 18.191406 0.890625 16.171875 0.890625 C 13.609375 0.890625 11.25 0.238281 9.09375 -1.0625 C 6.9375 -2.375 5.203125 -4.328125 3.890625 -6.921875 C 2.578125 -9.515625 1.921875 -12.691406 1.921875 -16.453125 C 1.921875 -20.898438 2.757812 -24.6875 4.4375 -27.8125 C 6.113281 -30.9375 8.328125 -33.273438 11.078125 -34.828125 C 13.835938 -36.390625 16.867188 -37.171875 20.171875 -37.171875 C 20.953125 -37.171875 22.351562 -37.082031 24.375 -36.90625 L 24.171875 -41.03125 L 24.171875 -44.46875 C 24.171875 -45.613281 23.847656 -46.460938 23.203125 -47.015625 C 22.554688 -47.566406 21.335938 -47.84375 19.546875 -47.84375 L 19.546875 -50.671875 C 21.160156 -51.546875 23.25 -52.328125 25.8125 -53.015625 C 28.382812 -53.703125 30.40625 -54.046875 31.875 -54.046875 C 32.925781 -54.046875 33.691406 -53.800781 34.171875 -53.3125 C 34.660156 -52.832031 34.90625 -52.019531 34.90625 -50.875 L 34.90625 -7.640625 C 34.90625 -5.390625 36.003906 -4.0625 38.203125 -3.65625 Z M 20.921875 -4.953125 C 22.347656 -4.953125 23.429688 -5.367188 24.171875 -6.203125 L 24.171875 -30.296875 C 23.203125 -31.617188 21.914062 -32.28125 20.3125 -32.28125 C 18.289062 -32.28125 16.671875 -31.222656 15.453125 -29.109375 C 14.234375 -27.003906 13.625 -23.585938 13.625 -18.859375 C 13.625 -14.316406 14.300781 -10.863281 15.65625 -8.5 C 17.007812 -6.132812 18.765625 -4.953125 20.921875 -4.953125 Z M 20.921875 -4.953125 "/></g></g></g><g clip-path="url(#cfdf1f7b00)"><g clip-path="url(#2e2b60c90a)"><g clip-path="url(#2ae05b974c)"><path fill="#ff8c00" d="M 39.890625 150.671875 C 39.539062 150.964844 39.1875 151.25 38.84375 151.546875 C 37.574219 152.640625 36.308594 153.738281 35.042969 154.839844 C 34.945312 154.925781 34.847656 155.015625 34.746094 155.105469 C 34.761719 155.195312 34.78125 155.285156 34.808594 155.375 C 35.140625 156.316406 35.46875 157.261719 35.820312 158.195312 C 35.957031 158.554688 35.929688 158.855469 35.679688 159.132812 C 35.5 159.347656 35.308594 159.546875 35.101562 159.738281 C 33.644531 161.015625 32.179688 162.28125 30.71875 163.558594 C 30.265625 163.976562 29.734375 164.125 29.125 163.996094 C 27.375 163.679688 25.625 163.375 23.875 163.082031 C 23.570312 163.046875 23.308594 162.925781 23.085938 162.71875 C 22.863281 162.511719 22.722656 162.257812 22.664062 161.957031 C 22.492188 161.292969 22.339844 160.617188 22.183594 159.945312 C 22.128906 159.722656 22.082031 159.496094 22.035156 159.296875 L 15.789062 158.214844 L 16.769531 161.492188 C 17.304688 161.632812 17.488281 161.976562 17.496094 162.453125 C 17.503906 162.585938 17.535156 162.714844 17.589844 162.832031 C 18.191406 164.253906 18.789062 165.675781 19.394531 167.09375 C 19.875 168.226562 20.335938 169.375 21.078125 170.378906 C 21.160156 170.488281 21.269531 170.609375 21.160156 170.800781 C 21.097656 170.78125 21.035156 170.757812 20.972656 170.726562 C 20.929688 170.6875 20.894531 170.640625 20.859375 170.59375 C 20.820312 170.554688 20.777344 170.523438 20.734375 170.488281 C 20.738281 170.566406 20.757812 170.644531 20.800781 170.710938 C 20.863281 170.835938 21.019531 170.992188 20.828125 171.085938 C 20.640625 171.179688 20.597656 170.960938 20.53125 170.839844 C 20.140625 170.121094 19.757812 169.398438 19.371094 168.679688 C 19.542969 169.210938 19.746094 169.726562 19.9375 170.25 C 20.066406 170.609375 20.183594 170.972656 20.300781 171.335938 C 20.332031 171.449219 20.367188 171.566406 20.148438 171.652344 C 19.777344 170.886719 19.628906 170.027344 19.203125 169.304688 C 19.425781 170.050781 19.652344 170.808594 19.878906 171.570312 C 19.925781 171.714844 20.007812 171.871094 19.847656 172.007812 C 19.632812 171.96875 19.617188 171.789062 19.574219 171.644531 C 19.378906 170.984375 19.179688 170.324219 18.984375 169.664062 L 18.890625 169.695312 L 19.433594 171.511719 C 19.484375 171.664062 19.527344 171.820312 19.554688 171.976562 C 19.5625 172.042969 19.488281 172.121094 19.453125 172.195312 L 19.34375 172.183594 C 18.90625 170.824219 18.546875 169.4375 18.164062 168.058594 C 18.210938 168.628906 18.292969 169.195312 18.359375 169.761719 C 18.4375 170.417969 18.503906 171.074219 18.566406 171.734375 C 18.578125 171.875 18.628906 172.0625 18.335938 172.117188 C 18.3125 171.984375 18.285156 171.867188 18.265625 171.746094 C 18.105469 170.433594 17.953125 169.121094 17.777344 167.808594 C 17.679688 167.054688 17.542969 166.300781 17.425781 165.554688 C 17.40625 165.621094 17.359375 165.691406 17.367188 165.753906 C 17.410156 166.148438 17.460938 166.542969 17.515625 166.933594 C 17.707031 168.492188 17.898438 170.054688 18.089844 171.613281 C 18.105469 171.714844 18.105469 171.816406 18.09375 171.917969 C 18.074219 171.972656 18.035156 172.003906 17.980469 172.015625 C 17.921875 172.011719 17.875 171.984375 17.847656 171.933594 C 17.824219 171.863281 17.808594 171.792969 17.808594 171.71875 C 17.613281 170.148438 17.421875 168.574219 17.226562 166.996094 C 17.058594 165.640625 16.898438 164.28125 16.703125 162.929688 C 16.636719 162.472656 16.320312 162.050781 16.480469 161.550781 C 16.238281 160.457031 15.90625 159.394531 15.480469 158.355469 C 15.425781 158.167969 15.300781 158.066406 15.101562 158.050781 C 14.925781 158.035156 14.753906 158.003906 14.582031 157.957031 C 14.269531 157.867188 14.199219 157.667969 14.402344 157.398438 C 14.484375 157.296875 14.574219 157.199219 14.675781 157.117188 C 14.953125 156.875 15.246094 156.632812 15.542969 156.398438 C 18.652344 153.890625 21.828125 151.464844 24.828125 148.824219 C 25.261719 148.429688 25.773438 148.238281 26.359375 148.253906 C 26.609375 148.253906 26.851562 148.257812 27.105469 148.28125 C 28.292969 148.398438 29.472656 148.503906 30.652344 148.65625 C 33.375 149.027344 36.09375 149.417969 38.8125 149.808594 C 39.148438 149.851562 39.476562 149.929688 39.796875 150.039062 C 40.1875 150.175781 40.207031 150.414062 39.890625 150.671875 Z M 39.890625 150.671875 " fill-opacity="1" fill-rule="nonzero"/></g></g></g><g fill="#ff8c00" fill-opacity="1"><g transform="translate(273.479459, 225.359635)"><g><path d="M 3.8125 -8.765625 C 5.082031 -8.765625 5.988281 -8.53125 6.53125 -8.0625 C 7.082031 -7.601562 7.359375 -6.898438 7.359375 -5.953125 C 7.359375 -5.398438 7.222656 -4.90625 6.953125 -4.46875 C 6.679688 -4.03125 6.265625 -3.6875 5.703125 -3.4375 C 5.148438 -3.195312 4.472656 -3.078125 3.671875 -3.078125 L 3.140625 -3.078125 L 3.140625 -1.984375 C 3.140625 -1.648438 3.175781 -1.398438 3.25 -1.234375 C 3.332031 -1.066406 3.46875 -0.953125 3.65625 -0.890625 C 3.84375 -0.828125 4.125 -0.796875 4.5 -0.796875 C 4.5 -0.648438 4.472656 -0.503906 4.421875 -0.359375 C 4.378906 -0.222656 4.316406 -0.101562 4.234375 0 L 0.609375 0 C 0.515625 -0.101562 0.441406 -0.222656 0.390625 -0.359375 C 0.347656 -0.503906 0.328125 -0.648438 0.328125 -0.796875 C 0.609375 -0.796875 0.804688 -0.84375 0.921875 -0.9375 C 1.046875 -1.03125 1.109375 -1.191406 1.109375 -1.421875 L 1.109375 -7.265625 C 1.109375 -7.492188 1.046875 -7.65625 0.921875 -7.75 C 0.804688 -7.84375 0.609375 -7.890625 0.328125 -7.890625 C 0.328125 -8.179688 0.414062 -8.445312 0.59375 -8.6875 C 1.15625 -8.6875 1.910156 -8.707031 2.859375 -8.75 C 3.335938 -8.757812 3.65625 -8.765625 3.8125 -8.765625 Z M 5.203125 -6 C 5.203125 -6.53125 5.078125 -6.957031 4.828125 -7.28125 C 4.585938 -7.613281 4.179688 -7.78125 3.609375 -7.78125 C 3.421875 -7.78125 3.265625 -7.765625 3.140625 -7.734375 L 3.140625 -4.09375 C 3.222656 -4.070312 3.332031 -4.0625 3.46875 -4.0625 C 4.15625 -4.0625 4.613281 -4.242188 4.84375 -4.609375 C 5.082031 -4.972656 5.203125 -5.4375 5.203125 -6 Z M 5.203125 -6 "/></g></g></g><g fill="#ff8c00" fill-opacity="1"><g transform="translate(280.964512, 225.359635)"><g><path d="M 3.984375 -1.265625 C 4.503906 -1.265625 4.988281 -1.429688 5.4375 -1.765625 C 5.5 -1.703125 5.554688 -1.601562 5.609375 -1.46875 C 5.660156 -1.332031 5.6875 -1.21875 5.6875 -1.125 C 5.6875 -0.96875 5.585938 -0.789062 5.390625 -0.59375 C 5.191406 -0.40625 4.914062 -0.238281 4.5625 -0.09375 C 4.207031 0.0390625 3.8125 0.109375 3.375 0.109375 C 2.757812 0.109375 2.21875 -0.0195312 1.75 -0.28125 C 1.289062 -0.550781 0.9375 -0.9375 0.6875 -1.4375 C 0.445312 -1.945312 0.328125 -2.546875 0.328125 -3.234375 C 0.328125 -3.941406 0.457031 -4.5625 0.71875 -5.09375 C 0.988281 -5.625 1.359375 -6.03125 1.828125 -6.3125 C 2.304688 -6.59375 2.84375 -6.734375 3.4375 -6.734375 C 4.195312 -6.734375 4.800781 -6.515625 5.25 -6.078125 C 5.695312 -5.640625 5.921875 -5.03125 5.921875 -4.25 C 5.921875 -3.882812 5.863281 -3.597656 5.75 -3.390625 C 5.632812 -3.179688 5.425781 -3.078125 5.125 -3.078125 L 2.4375 -3.078125 C 2.488281 -1.867188 3.003906 -1.265625 3.984375 -1.265625 Z M 3.375 -5.890625 C 3.113281 -5.890625 2.894531 -5.742188 2.71875 -5.453125 C 2.550781 -5.171875 2.457031 -4.691406 2.4375 -4.015625 L 3.6875 -4.015625 C 3.820312 -4.015625 3.910156 -4.0625 3.953125 -4.15625 C 3.992188 -4.25 4.015625 -4.390625 4.015625 -4.578125 C 4.015625 -5.066406 3.957031 -5.40625 3.84375 -5.59375 C 3.726562 -5.789062 3.570312 -5.890625 3.375 -5.890625 Z M 3.375 -5.890625 "/></g></g></g><g fill="#ff8c00" fill-opacity="1"><g transform="translate(287.2062, 225.359635)"><g><path d="M 7.359375 -0.328125 C 7.234375 -0.210938 7.007812 -0.113281 6.6875 -0.03125 C 6.375 0.0390625 6.070312 0.078125 5.78125 0.078125 C 5.425781 0.078125 5.160156 0.0078125 4.984375 -0.125 C 4.816406 -0.257812 4.734375 -0.472656 4.734375 -0.765625 L 4.734375 -4.640625 C 4.734375 -4.960938 4.660156 -5.191406 4.515625 -5.328125 C 4.378906 -5.472656 4.195312 -5.546875 3.96875 -5.546875 C 3.625 -5.546875 3.335938 -5.410156 3.109375 -5.140625 L 3.109375 -1.34375 C 3.109375 -1.101562 3.160156 -0.925781 3.265625 -0.8125 C 3.367188 -0.707031 3.546875 -0.65625 3.796875 -0.65625 C 3.796875 -0.40625 3.695312 -0.1875 3.5 0 L 0.6875 0 C 0.488281 -0.195312 0.390625 -0.414062 0.390625 -0.65625 C 0.640625 -0.65625 0.816406 -0.707031 0.921875 -0.8125 C 1.023438 -0.925781 1.078125 -1.101562 1.078125 -1.34375 L 1.078125 -4.96875 C 1.078125 -5.195312 1.015625 -5.359375 0.890625 -5.453125 C 0.765625 -5.546875 0.550781 -5.59375 0.25 -5.59375 L 0.25 -6.15625 C 0.507812 -6.300781 0.882812 -6.4375 1.375 -6.5625 C 1.863281 -6.6875 2.226562 -6.75 2.46875 -6.75 C 2.664062 -6.75 2.816406 -6.6875 2.921875 -6.5625 C 3.023438 -6.445312 3.082031 -6.222656 3.09375 -5.890625 C 3.3125 -6.160156 3.582031 -6.367188 3.90625 -6.515625 C 4.226562 -6.671875 4.59375 -6.75 5 -6.75 C 5.59375 -6.75 6.03125 -6.597656 6.3125 -6.296875 C 6.601562 -5.992188 6.75 -5.5 6.75 -4.8125 L 6.75 -1.421875 C 6.75 -1.015625 6.945312 -0.773438 7.34375 -0.703125 Z M 7.359375 -0.328125 "/></g></g></g><g fill="#ff8c00" fill-opacity="1"><g transform="translate(294.803154, 225.359635)"><g><path d="M 2.875 -5.484375 L 2.875 -1.984375 C 2.875 -1.734375 2.921875 -1.554688 3.015625 -1.453125 C 3.117188 -1.359375 3.257812 -1.3125 3.4375 -1.3125 C 3.601562 -1.3125 3.769531 -1.351562 3.9375 -1.4375 C 4.113281 -1.519531 4.253906 -1.625 4.359375 -1.75 C 4.441406 -1.6875 4.5 -1.585938 4.53125 -1.453125 C 4.570312 -1.316406 4.59375 -1.195312 4.59375 -1.09375 C 4.59375 -0.90625 4.523438 -0.71875 4.390625 -0.53125 C 4.253906 -0.351562 4.050781 -0.203125 3.78125 -0.078125 C 3.519531 0.0351562 3.203125 0.09375 2.828125 0.09375 C 2.253906 0.09375 1.789062 -0.0703125 1.4375 -0.40625 C 1.082031 -0.738281 0.90625 -1.289062 0.90625 -2.0625 L 0.90625 -5.484375 L 0.125 -5.484375 L 0.125 -6.25 C 0.34375 -6.28125 0.550781 -6.414062 0.75 -6.65625 C 0.957031 -6.90625 1.132812 -7.210938 1.28125 -7.578125 C 1.425781 -7.953125 1.519531 -8.320312 1.5625 -8.6875 C 1.707031 -8.707031 1.84375 -8.71875 1.96875 -8.71875 C 2.257812 -8.71875 2.476562 -8.628906 2.625 -8.453125 C 2.769531 -8.285156 2.84375 -8.097656 2.84375 -7.890625 L 2.84375 -6.59375 L 4.296875 -6.59375 C 4.296875 -6.34375 4.28125 -6.128906 4.25 -5.953125 C 4.226562 -5.773438 4.175781 -5.617188 4.09375 -5.484375 Z M 2.875 -5.484375 "/></g></g></g><g fill="#ff8c00" fill-opacity="1"><g transform="translate(299.490642, 225.359635)"><g><path d="M 4.578125 -6.75 C 4.953125 -6.75 5.222656 -6.65625 5.390625 -6.46875 C 5.566406 -6.28125 5.65625 -6.019531 5.65625 -5.6875 C 5.65625 -5.332031 5.5625 -5.039062 5.375 -4.8125 C 5.1875 -4.59375 4.9375 -4.484375 4.625 -4.484375 C 4.351562 -4.484375 4.128906 -4.5625 3.953125 -4.71875 C 3.785156 -4.875 3.703125 -5.0625 3.703125 -5.28125 C 3.703125 -5.40625 3.71875 -5.503906 3.75 -5.578125 C 3.445312 -5.503906 3.191406 -5.378906 2.984375 -5.203125 L 2.984375 -1.46875 C 2.984375 -1.257812 3.007812 -1.097656 3.0625 -0.984375 C 3.125 -0.878906 3.238281 -0.800781 3.40625 -0.75 C 3.582031 -0.695312 3.835938 -0.671875 4.171875 -0.671875 C 4.171875 -0.523438 4.15625 -0.398438 4.125 -0.296875 C 4.09375 -0.191406 4.03125 -0.09375 3.9375 0 L 0.625 0 C 0.425781 -0.1875 0.328125 -0.410156 0.328125 -0.671875 C 0.578125 -0.671875 0.75 -0.722656 0.84375 -0.828125 C 0.945312 -0.929688 1 -1.109375 1 -1.359375 L 1 -4.953125 C 1 -5.171875 0.9375 -5.328125 0.8125 -5.421875 C 0.695312 -5.515625 0.488281 -5.5625 0.1875 -5.5625 L 0.1875 -6.125 C 0.457031 -6.28125 0.816406 -6.414062 1.265625 -6.53125 C 1.722656 -6.65625 2.078125 -6.71875 2.328125 -6.71875 C 2.523438 -6.71875 2.664062 -6.644531 2.75 -6.5 C 2.832031 -6.363281 2.875 -6.082031 2.875 -5.65625 C 3.019531 -5.9375 3.253906 -6.1875 3.578125 -6.40625 C 3.898438 -6.632812 4.234375 -6.75 4.578125 -6.75 Z M 4.578125 -6.75 "/></g></g></g><g fill="#ff8c00" fill-opacity="1"><g transform="translate(305.085784, 225.359635)"><g><path d="M 6.375 -1.453125 C 6.375 -1.253906 6.421875 -1.085938 6.515625 -0.953125 C 6.617188 -0.828125 6.769531 -0.753906 6.96875 -0.734375 L 6.96875 -0.390625 C 6.832031 -0.234375 6.625 -0.113281 6.34375 -0.03125 C 6.070312 0.0507812 5.796875 0.09375 5.515625 0.09375 C 5.234375 0.09375 4.988281 0.0195312 4.78125 -0.125 C 4.582031 -0.28125 4.453125 -0.492188 4.390625 -0.765625 C 3.992188 -0.191406 3.425781 0.09375 2.6875 0.09375 C 2.101562 0.09375 1.648438 -0.0820312 1.328125 -0.4375 C 1.003906 -0.800781 0.84375 -1.285156 0.84375 -1.890625 L 0.84375 -5.3125 C 0.84375 -5.445312 0.789062 -5.546875 0.6875 -5.609375 C 0.582031 -5.671875 0.429688 -5.703125 0.234375 -5.703125 L 0.234375 -6.25 C 0.359375 -6.34375 0.597656 -6.4375 0.953125 -6.53125 C 1.304688 -6.632812 1.679688 -6.6875 2.078125 -6.6875 C 2.304688 -6.6875 2.472656 -6.671875 2.578125 -6.640625 C 2.691406 -6.617188 2.769531 -6.5625 2.8125 -6.46875 C 2.851562 -6.375 2.875 -6.226562 2.875 -6.03125 L 2.875 -1.859375 C 2.875 -1.597656 2.914062 -1.398438 3 -1.265625 C 3.09375 -1.140625 3.238281 -1.078125 3.4375 -1.078125 C 3.601562 -1.078125 3.765625 -1.128906 3.921875 -1.234375 C 4.085938 -1.335938 4.226562 -1.460938 4.34375 -1.609375 L 4.34375 -5.3125 C 4.34375 -5.570312 4.109375 -5.703125 3.640625 -5.703125 L 3.640625 -6.25 C 3.773438 -6.351562 4.019531 -6.453125 4.375 -6.546875 C 4.726562 -6.640625 5.113281 -6.6875 5.53125 -6.6875 C 5.875 -6.6875 6.097656 -6.644531 6.203125 -6.5625 C 6.316406 -6.488281 6.375 -6.3125 6.375 -6.03125 Z M 6.375 -1.453125 "/></g></g></g><g fill="#ff8c00" fill-opacity="1"><g transform="translate(312.197829, 225.359635)"><g/></g></g><g fill="#ff8c00" fill-opacity="1"><g transform="translate(314.560221, 225.359635)"><g><path d="M 2.875 0.125 C 2.46875 0.125 2.0625 0.0664062 1.65625 -0.046875 C 1.257812 -0.171875 0.929688 -0.34375 0.671875 -0.5625 C 0.410156 -0.789062 0.28125 -1.0625 0.28125 -1.375 C 0.28125 -1.65625 0.363281 -1.882812 0.53125 -2.0625 C 0.695312 -2.25 0.910156 -2.34375 1.171875 -2.34375 C 1.398438 -2.34375 1.59375 -2.265625 1.75 -2.109375 C 1.914062 -1.960938 2 -1.769531 2 -1.53125 C 2 -1.425781 1.984375 -1.332031 1.953125 -1.25 C 1.929688 -1.164062 1.878906 -1.082031 1.796875 -1 C 1.867188 -0.925781 1.992188 -0.867188 2.171875 -0.828125 C 2.359375 -0.796875 2.554688 -0.78125 2.765625 -0.78125 C 3.046875 -0.78125 3.265625 -0.832031 3.421875 -0.9375 C 3.585938 -1.039062 3.671875 -1.175781 3.671875 -1.34375 C 3.671875 -1.5625 3.566406 -1.753906 3.359375 -1.921875 C 3.148438 -2.085938 2.816406 -2.289062 2.359375 -2.53125 C 1.898438 -2.769531 1.546875 -2.972656 1.296875 -3.140625 C 1.054688 -3.304688 0.84375 -3.523438 0.65625 -3.796875 C 0.476562 -4.078125 0.390625 -4.421875 0.390625 -4.828125 C 0.390625 -5.390625 0.617188 -5.84375 1.078125 -6.1875 C 1.546875 -6.539062 2.191406 -6.71875 3.015625 -6.71875 C 3.816406 -6.71875 4.410156 -6.570312 4.796875 -6.28125 C 5.191406 -6 5.390625 -5.660156 5.390625 -5.265625 C 5.390625 -5.015625 5.304688 -4.8125 5.140625 -4.65625 C 4.984375 -4.5 4.789062 -4.421875 4.5625 -4.421875 C 4.34375 -4.421875 4.15625 -4.484375 4 -4.609375 C 3.851562 -4.734375 3.78125 -4.898438 3.78125 -5.109375 C 3.78125 -5.222656 3.796875 -5.332031 3.828125 -5.4375 C 3.859375 -5.550781 3.90625 -5.644531 3.96875 -5.71875 C 3.800781 -5.851562 3.550781 -5.921875 3.21875 -5.921875 C 2.957031 -5.921875 2.75 -5.859375 2.59375 -5.734375 C 2.445312 -5.609375 2.375 -5.453125 2.375 -5.265625 C 2.375 -5.003906 2.476562 -4.789062 2.6875 -4.625 C 2.894531 -4.457031 3.226562 -4.257812 3.6875 -4.03125 C 4.113281 -3.800781 4.453125 -3.601562 4.703125 -3.4375 C 4.953125 -3.28125 5.164062 -3.0625 5.34375 -2.78125 C 5.53125 -2.507812 5.625 -2.175781 5.625 -1.78125 C 5.625 -1.132812 5.359375 -0.65625 4.828125 -0.34375 C 4.304688 -0.03125 3.65625 0.125 2.875 0.125 Z M 2.875 0.125 "/></g></g></g><g fill="#ff8c00" fill-opacity="1"><g transform="translate(320.466207, 225.359635)"><g><path d="M 2.875 -5.484375 L 2.875 -1.984375 C 2.875 -1.734375 2.921875 -1.554688 3.015625 -1.453125 C 3.117188 -1.359375 3.257812 -1.3125 3.4375 -1.3125 C 3.601562 -1.3125 3.769531 -1.351562 3.9375 -1.4375 C 4.113281 -1.519531 4.253906 -1.625 4.359375 -1.75 C 4.441406 -1.6875 4.5 -1.585938 4.53125 -1.453125 C 4.570312 -1.316406 4.59375 -1.195312 4.59375 -1.09375 C 4.59375 -0.90625 4.523438 -0.71875 4.390625 -0.53125 C 4.253906 -0.351562 4.050781 -0.203125 3.78125 -0.078125 C 3.519531 0.0351562 3.203125 0.09375 2.828125 0.09375 C 2.253906 0.09375 1.789062 -0.0703125 1.4375 -0.40625 C 1.082031 -0.738281 0.90625 -1.289062 0.90625 -2.0625 L 0.90625 -5.484375 L 0.125 -5.484375 L 0.125 -6.25 C 0.34375 -6.28125 0.550781 -6.414062 0.75 -6.65625 C 0.957031 -6.90625 1.132812 -7.210938 1.28125 -7.578125 C 1.425781 -7.953125 1.519531 -8.320312 1.5625 -8.6875 C 1.707031 -8.707031 1.84375 -8.71875 1.96875 -8.71875 C 2.257812 -8.71875 2.476562 -8.628906 2.625 -8.453125 C 2.769531 -8.285156 2.84375 -8.097656 2.84375 -7.890625 L 2.84375 -6.59375 L 4.296875 -6.59375 C 4.296875 -6.34375 4.28125 -6.128906 4.25 -5.953125 C 4.226562 -5.773438 4.175781 -5.617188 4.09375 -5.484375 Z M 2.875 -5.484375 "/></g></g></g><g fill="#ff8c00" fill-opacity="1"><g transform="translate(325.153696, 225.359635)"><g><path d="M 6.375 -1.453125 C 6.375 -1.253906 6.421875 -1.085938 6.515625 -0.953125 C 6.617188 -0.828125 6.769531 -0.753906 6.96875 -0.734375 L 6.96875 -0.390625 C 6.832031 -0.234375 6.625 -0.113281 6.34375 -0.03125 C 6.070312 0.0507812 5.796875 0.09375 5.515625 0.09375 C 5.234375 0.09375 4.988281 0.0195312 4.78125 -0.125 C 4.582031 -0.28125 4.453125 -0.492188 4.390625 -0.765625 C 3.992188 -0.191406 3.425781 0.09375 2.6875 0.09375 C 2.101562 0.09375 1.648438 -0.0820312 1.328125 -0.4375 C 1.003906 -0.800781 0.84375 -1.285156 0.84375 -1.890625 L 0.84375 -5.3125 C 0.84375 -5.445312 0.789062 -5.546875 0.6875 -5.609375 C 0.582031 -5.671875 0.429688 -5.703125 0.234375 -5.703125 L 0.234375 -6.25 C 0.359375 -6.34375 0.597656 -6.4375 0.953125 -6.53125 C 1.304688 -6.632812 1.679688 -6.6875 2.078125 -6.6875 C 2.304688 -6.6875 2.472656 -6.671875 2.578125 -6.640625 C 2.691406 -6.617188 2.769531 -6.5625 2.8125 -6.46875 C 2.851562 -6.375 2.875 -6.226562 2.875 -6.03125 L 2.875 -1.859375 C 2.875 -1.597656 2.914062 -1.398438 3 -1.265625 C 3.09375 -1.140625 3.238281 -1.078125 3.4375 -1.078125 C 3.601562 -1.078125 3.765625 -1.128906 3.921875 -1.234375 C 4.085938 -1.335938 4.226562 -1.460938 4.34375 -1.609375 L 4.34375 -5.3125 C 4.34375 -5.570312 4.109375 -5.703125 3.640625 -5.703125 L 3.640625 -6.25 C 3.773438 -6.351562 4.019531 -6.453125 4.375 -6.546875 C 4.726562 -6.640625 5.113281 -6.6875 5.53125 -6.6875 C 5.875 -6.6875 6.097656 -6.644531 6.203125 -6.5625 C 6.316406 -6.488281 6.375 -6.3125 6.375 -6.03125 Z M 6.375 -1.453125 "/></g></g></g><g fill="#ff8c00" fill-opacity="1"><g transform="translate(332.26574, 225.359635)"><g><path d="M 6.921875 -0.3125 C 6.796875 -0.164062 6.617188 -0.0507812 6.390625 0.03125 C 6.160156 0.113281 5.910156 0.15625 5.640625 0.15625 C 5.398438 0.15625 5.164062 0.101562 4.9375 0 C 4.707031 -0.101562 4.546875 -0.242188 4.453125 -0.421875 C 4.285156 -0.203125 4.078125 -0.0507812 3.828125 0.03125 C 3.585938 0.113281 3.285156 0.15625 2.921875 0.15625 C 2.453125 0.15625 2.023438 0.0390625 1.640625 -0.1875 C 1.253906 -0.425781 0.941406 -0.78125 0.703125 -1.25 C 0.460938 -1.71875 0.34375 -2.289062 0.34375 -2.96875 C 0.34375 -3.769531 0.492188 -4.453125 0.796875 -5.015625 C 1.097656 -5.585938 1.5 -6.015625 2 -6.296875 C 2.5 -6.578125 3.046875 -6.71875 3.640625 -6.71875 C 3.785156 -6.71875 4.039062 -6.703125 4.40625 -6.671875 L 4.359375 -7.40625 L 4.359375 -8.03125 C 4.359375 -8.238281 4.300781 -8.390625 4.1875 -8.484375 C 4.070312 -8.585938 3.851562 -8.640625 3.53125 -8.640625 L 3.53125 -9.15625 C 3.820312 -9.3125 4.195312 -9.453125 4.65625 -9.578125 C 5.125 -9.703125 5.492188 -9.765625 5.765625 -9.765625 C 5.953125 -9.765625 6.085938 -9.71875 6.171875 -9.625 C 6.265625 -9.539062 6.3125 -9.394531 6.3125 -9.1875 L 6.3125 -1.375 C 6.3125 -0.96875 6.507812 -0.726562 6.90625 -0.65625 Z M 3.78125 -0.890625 C 4.039062 -0.890625 4.234375 -0.96875 4.359375 -1.125 L 4.359375 -5.46875 C 4.191406 -5.707031 3.960938 -5.828125 3.671875 -5.828125 C 3.304688 -5.828125 3.015625 -5.632812 2.796875 -5.25 C 2.578125 -4.875 2.46875 -4.257812 2.46875 -3.40625 C 2.46875 -2.582031 2.585938 -1.957031 2.828125 -1.53125 C 3.078125 -1.101562 3.394531 -0.890625 3.78125 -0.890625 Z M 3.78125 -0.890625 "/></g></g></g><g fill="#ff8c00" fill-opacity="1"><g transform="translate(339.303181, 225.359635)"><g><path d="M 3.984375 -1.265625 C 4.503906 -1.265625 4.988281 -1.429688 5.4375 -1.765625 C 5.5 -1.703125 5.554688 -1.601562 5.609375 -1.46875 C 5.660156 -1.332031 5.6875 -1.21875 5.6875 -1.125 C 5.6875 -0.96875 5.585938 -0.789062 5.390625 -0.59375 C 5.191406 -0.40625 4.914062 -0.238281 4.5625 -0.09375 C 4.207031 0.0390625 3.8125 0.109375 3.375 0.109375 C 2.757812 0.109375 2.21875 -0.0195312 1.75 -0.28125 C 1.289062 -0.550781 0.9375 -0.9375 0.6875 -1.4375 C 0.445312 -1.945312 0.328125 -2.546875 0.328125 -3.234375 C 0.328125 -3.941406 0.457031 -4.5625 0.71875 -5.09375 C 0.988281 -5.625 1.359375 -6.03125 1.828125 -6.3125 C 2.304688 -6.59375 2.84375 -6.734375 3.4375 -6.734375 C 4.195312 -6.734375 4.800781 -6.515625 5.25 -6.078125 C 5.695312 -5.640625 5.921875 -5.03125 5.921875 -4.25 C 5.921875 -3.882812 5.863281 -3.597656 5.75 -3.390625 C 5.632812 -3.179688 5.425781 -3.078125 5.125 -3.078125 L 2.4375 -3.078125 C 2.488281 -1.867188 3.003906 -1.265625 3.984375 -1.265625 Z M 3.375 -5.890625 C 3.113281 -5.890625 2.894531 -5.742188 2.71875 -5.453125 C 2.550781 -5.171875 2.457031 -4.691406 2.4375 -4.015625 L 3.6875 -4.015625 C 3.820312 -4.015625 3.910156 -4.0625 3.953125 -4.15625 C 3.992188 -4.25 4.015625 -4.390625 4.015625 -4.578125 C 4.015625 -5.066406 3.957031 -5.40625 3.84375 -5.59375 C 3.726562 -5.789062 3.570312 -5.890625 3.375 -5.890625 Z M 3.375 -5.890625 "/></g></g></g><g fill="#ff8c00" fill-opacity="1"><g transform="translate(345.544869, 225.359635)"><g><path d="M 7.359375 -0.328125 C 7.234375 -0.210938 7.007812 -0.113281 6.6875 -0.03125 C 6.375 0.0390625 6.070312 0.078125 5.78125 0.078125 C 5.425781 0.078125 5.160156 0.0078125 4.984375 -0.125 C 4.816406 -0.257812 4.734375 -0.472656 4.734375 -0.765625 L 4.734375 -4.640625 C 4.734375 -4.960938 4.660156 -5.191406 4.515625 -5.328125 C 4.378906 -5.472656 4.195312 -5.546875 3.96875 -5.546875 C 3.625 -5.546875 3.335938 -5.410156 3.109375 -5.140625 L 3.109375 -1.34375 C 3.109375 -1.101562 3.160156 -0.925781 3.265625 -0.8125 C 3.367188 -0.707031 3.546875 -0.65625 3.796875 -0.65625 C 3.796875 -0.40625 3.695312 -0.1875 3.5 0 L 0.6875 0 C 0.488281 -0.195312 0.390625 -0.414062 0.390625 -0.65625 C 0.640625 -0.65625 0.816406 -0.707031 0.921875 -0.8125 C 1.023438 -0.925781 1.078125 -1.101562 1.078125 -1.34375 L 1.078125 -4.96875 C 1.078125 -5.195312 1.015625 -5.359375 0.890625 -5.453125 C 0.765625 -5.546875 0.550781 -5.59375 0.25 -5.59375 L 0.25 -6.15625 C 0.507812 -6.300781 0.882812 -6.4375 1.375 -6.5625 C 1.863281 -6.6875 2.226562 -6.75 2.46875 -6.75 C 2.664062 -6.75 2.816406 -6.6875 2.921875 -6.5625 C 3.023438 -6.445312 3.082031 -6.222656 3.09375 -5.890625 C 3.3125 -6.160156 3.582031 -6.367188 3.90625 -6.515625 C 4.226562 -6.671875 4.59375 -6.75 5 -6.75 C 5.59375 -6.75 6.03125 -6.597656 6.3125 -6.296875 C 6.601562 -5.992188 6.75 -5.5 6.75 -4.8125 L 6.75 -1.421875 C 6.75 -1.015625 6.945312 -0.773438 7.34375 -0.703125 Z M 7.359375 -0.328125 "/></g></g></g><g fill="#ff8c00" fill-opacity="1"><g transform="translate(353.141822, 225.359635)"><g><path d="M 2.875 -5.484375 L 2.875 -1.984375 C 2.875 -1.734375 2.921875 -1.554688 3.015625 -1.453125 C 3.117188 -1.359375 3.257812 -1.3125 3.4375 -1.3125 C 3.601562 -1.3125 3.769531 -1.351562 3.9375 -1.4375 C 4.113281 -1.519531 4.253906 -1.625 4.359375 -1.75 C 4.441406 -1.6875 4.5 -1.585938 4.53125 -1.453125 C 4.570312 -1.316406 4.59375 -1.195312 4.59375 -1.09375 C 4.59375 -0.90625 4.523438 -0.71875 4.390625 -0.53125 C 4.253906 -0.351562 4.050781 -0.203125 3.78125 -0.078125 C 3.519531 0.0351562 3.203125 0.09375 2.828125 0.09375 C 2.253906 0.09375 1.789062 -0.0703125 1.4375 -0.40625 C 1.082031 -0.738281 0.90625 -1.289062 0.90625 -2.0625 L 0.90625 -5.484375 L 0.125 -5.484375 L 0.125 -6.25 C 0.34375 -6.28125 0.550781 -6.414062 0.75 -6.65625 C 0.957031 -6.90625 1.132812 -7.210938 1.28125 -7.578125 C 1.425781 -7.953125 1.519531 -8.320312 1.5625 -8.6875 C 1.707031 -8.707031 1.84375 -8.71875 1.96875 -8.71875 C 2.257812 -8.71875 2.476562 -8.628906 2.625 -8.453125 C 2.769531 -8.285156 2.84375 -8.097656 2.84375 -7.890625 L 2.84375 -6.59375 L 4.296875 -6.59375 C 4.296875 -6.34375 4.28125 -6.128906 4.25 -5.953125 C 4.226562 -5.773438 4.175781 -5.617188 4.09375 -5.484375 Z M 2.609375 4.296875 C 2.523438 4.265625 2.445312 4.203125 2.375 4.109375 C 2.3125 4.015625 2.28125 3.914062 2.28125 3.8125 C 2.675781 3.601562 2.875 3.316406 2.875 2.953125 C 2.875 2.929688 2.867188 2.890625 2.859375 2.828125 C 2.785156 2.835938 2.734375 2.84375 2.703125 2.84375 C 2.398438 2.84375 2.164062 2.75 2 2.5625 C 1.84375 2.375 1.765625 2.15625 1.765625 1.90625 C 1.765625 1.601562 1.851562 1.359375 2.03125 1.171875 C 2.21875 0.992188 2.460938 0.90625 2.765625 0.90625 C 3.109375 0.90625 3.390625 1.019531 3.609375 1.25 C 3.835938 1.488281 3.953125 1.835938 3.953125 2.296875 C 3.953125 2.660156 3.847656 3.039062 3.640625 3.4375 C 3.429688 3.832031 3.085938 4.117188 2.609375 4.296875 Z M 2.609375 4.296875 "/></g></g></g><g fill="#ff8c00" fill-opacity="1"><g transform="translate(357.829311, 225.359635)"><g><path d="M 3.1875 -8.796875 C 3.1875 -8.441406 3.078125 -8.15625 2.859375 -7.9375 C 2.640625 -7.726562 2.347656 -7.625 1.984375 -7.625 C 1.617188 -7.625 1.332031 -7.726562 1.125 -7.9375 C 0.914062 -8.15625 0.8125 -8.441406 0.8125 -8.796875 C 0.8125 -9.140625 0.921875 -9.421875 1.140625 -9.640625 C 1.359375 -9.859375 1.644531 -9.96875 2 -9.96875 C 2.351562 -9.96875 2.640625 -9.859375 2.859375 -9.640625 C 3.078125 -9.421875 3.1875 -9.140625 3.1875 -8.796875 Z M 2.953125 -1.34375 C 2.953125 -1.101562 3.007812 -0.929688 3.125 -0.828125 C 3.25 -0.722656 3.4375 -0.671875 3.6875 -0.671875 C 3.6875 -0.410156 3.585938 -0.1875 3.390625 0 L 0.578125 0 C 0.390625 -0.1875 0.296875 -0.410156 0.296875 -0.671875 C 0.546875 -0.671875 0.722656 -0.722656 0.828125 -0.828125 C 0.941406 -0.929688 1 -1.109375 1 -1.359375 L 1 -4.96875 C 1 -5.195312 0.941406 -5.359375 0.828125 -5.453125 C 0.722656 -5.554688 0.507812 -5.609375 0.1875 -5.609375 L 0.1875 -6.15625 C 0.382812 -6.28125 0.722656 -6.410156 1.203125 -6.546875 C 1.679688 -6.679688 2.082031 -6.75 2.40625 -6.75 C 2.601562 -6.75 2.742188 -6.707031 2.828125 -6.625 C 2.910156 -6.539062 2.953125 -6.394531 2.953125 -6.1875 Z M 2.953125 -1.34375 "/></g></g></g></svg>